<svg width="611" height="373" viewBox="0 0 611 373" fill="none" xmlns="http://www.w3.org/2000/svg">
<path d="M805.4 288.8C790.2 293.3 777.8 304.4 771.6 318.8C759.6 314.5 746.6 312.1 733.1 312.1C693.1 312.1 657.9 332.7 637.5 363.8C626.9 358.8 615.1 356.1 602.6 356.1C597.1 356.1 591.8 356.6 586.7 357.7C586.7 357.2 586.7 356.7 586.7 356.1C586.7 330.6 568.7 309.3 544.8 304.2C535.6 272.7 506.6 249.6 472.1 249.6C443.4 249.6 418.4 265.6 405.6 289.1C396.7 280.8 384.8 275.6 371.7 275.6C364.2 275.6 357.1 277.3 350.7 280.2C342.9 268.1 336 255.4 330.1 242C315.5 209 307.4 172.2 307.4 133.6C307.4 130.1 307.5 126.7 307.6 123.2C309.3 78.5 321.8 36.6 342.7 0H256.2C277.1 36.6 289.6 78.6 291.3 123.3C291.4 126.7 291.5 130.1 291.5 133.5C291.5 171.5 283.6 207.8 269.4 240.6C260.1 262 248.2 282 233.9 300.1C221.8 285.1 203.3 275.6 182.6 275.6C161.8 275.6 143.3 285.2 131.2 300.2C121.5 294.5 110.3 291.2 98.2001 291.2C78.8001 291.2 61.3001 299.8 49.4001 313.3C31.8001 287.2 2.00011 270 -31.7999 270C-85.7999 270 -129.6 313.8 -129.6 367.8C-129.6 368.1 -129.6 368.4 -129.6 368.7C-166.2 387.3 -191.9 424.3 -194.4 467.6H41.6001H525.5H805.4V288.8Z" fill="white"/>
</svg>
