<svg width="64" height="65" viewBox="0 0 64 65" fill="none" xmlns="http://www.w3.org/2000/svg">
<rect y="0.614258" width="64" height="64" rx="32" fill="#F0EEFC"/>
<path d="M41.5443 31.9476V44.6143H22.4557L22.4557 31.9476M20 44.6143L44 44.6143M35.2005 44.6143V39.5328C35.2005 38.4127 35.2005 37.8527 34.9825 37.4249C34.7908 37.0485 34.4848 36.7426 34.1085 36.5508C33.6807 36.3328 33.1205 36.3328 32 36.3328C30.8795 36.3328 30.3193 36.3328 29.8915 36.5508C29.5152 36.7426 29.2092 37.0485 29.0175 37.4249C28.7995 37.8527 28.7995 38.4127 28.7995 39.5328L28.7995 44.6143H35.2005ZM36 27.2809C36 29.4901 34.2091 31.2809 32 31.2809C29.7909 31.2809 28 29.4901 28 27.2809C28 29.4901 26.2091 31.2809 24 31.2809C21.7909 31.2809 20 29.4901 20 27.2809C20 26.4214 20.312 25.591 20.878 24.9442L24.6667 20.6143H40L43.2 24.8809C43.7193 25.5733 44 26.4154 44 27.2809C44 29.4901 42.2091 31.2809 40 31.2809C37.7909 31.2809 36 29.4901 36 27.2809Z" stroke="#4835B2" stroke-width="2" stroke-linecap="round" stroke-linejoin="round"/>
<rect x="42.7665" y="44.7143" width="16.8667" height="16.8667" rx="8.43333" fill="#3F2E9B"/>
<rect x="42.7665" y="44.7143" width="16.8667" height="16.8667" rx="8.43333" stroke="#C6CCD5" stroke-width="0.2"/>
<path d="M48.896 53.1478H51.2M51.2 53.1478H53.504M51.2 53.1478V50.8438M51.2 53.1478V55.4518" stroke="white" stroke-width="0.768" stroke-linecap="round"/>
</svg>
