<svg width="69" height="65" viewBox="0 0 69 65" fill="none" xmlns="http://www.w3.org/2000/svg">
<path d="M34.4102 61.3353C52.8686 61.3353 67.8321 47.8288 67.8321 31.1677C67.8321 14.5065 52.8686 1 34.4102 1C15.9518 1 0.988281 14.5065 0.988281 31.1677C0.988281 47.8288 15.9518 61.3353 34.4102 61.3353Z" fill="#8FE3F9"/>
<path d="M34.4102 61.3353C52.8686 61.3353 67.8321 47.8288 67.8321 31.1677C67.8321 14.5065 52.8686 1 34.4102 1C15.9518 1 0.988281 14.5065 0.988281 31.1677C0.988281 47.8288 15.9518 61.3353 34.4102 61.3353Z" fill="#8FE3F9"/>
<path d="M35.2893 60.75C42.9265 60.75 49.9627 58.5072 55.5917 54.7399L54.0525 51.1192C50.8276 43.5113 43.1757 38.542 34.6883 38.542C26.2009 38.542 18.549 43.5113 15.3241 51.1192L14.0635 54.1096C19.8244 58.258 27.227 60.75 35.2893 60.75Z" fill="#B2EBF9"/>
<path d="M34.3951 28.6465L28.0039 38.0281L32.8266 44.4486C33.6182 45.504 35.216 45.504 36.0076 44.4486L40.7863 38.0281L34.3951 28.6465Z" fill="#A4E0EA"/>
<path d="M34.4102 57.8168C16.5998 57.8168 2.05837 45.2543 1.04692 29.4082C1.00294 29.9946 0.988281 30.5809 0.988281 31.1673C0.988281 47.8196 15.9548 61.3349 34.4102 61.3349C52.8655 61.3349 67.8321 47.8342 67.8321 31.1673C67.8321 30.5809 67.8174 29.9946 67.7734 29.4082C66.762 45.2543 52.2059 57.8168 34.4102 57.8168Z" fill="#7AD1E5"/>
<path d="M54.4629 51.7773C48.8779 55.5593 41.9297 57.8167 34.4098 57.8167C27.0804 57.8167 20.3081 55.6912 14.8111 52.0852L14.0781 53.8882C19.8537 58.1686 27.2417 60.7485 35.304 60.7485C42.5893 60.7485 49.3324 58.6376 54.8294 55.0609C55.0932 54.885 55.3424 54.6944 55.6063 54.5039L54.4629 51.7773Z" fill="#A4E0EA"/>
<path d="M0.166992 31.2707C1.10515 33.191 2.3658 34.9794 3.94894 36.5772C11.6155 44.2437 24.0607 44.2437 31.7272 36.5772C38.1478 30.1566 39.1885 20.4086 34.8789 12.9033" fill="#7AD1E5"/>
<path d="M67.7137 33.5576C64.1957 38.8494 58.1856 42.3235 51.3546 42.3235C40.5072 42.3235 31.7119 33.5282 31.7119 22.6808C31.7119 17.8434 33.4563 13.4165 36.3587 9.98633" fill="#7AD1E5"/>
<path d="M34.4102 61.3353C52.8686 61.3353 67.8321 47.8288 67.8321 31.1677C67.8321 14.5065 52.8686 1 34.4102 1C15.9518 1 0.988281 14.5065 0.988281 31.1677C0.988281 47.8288 15.9518 61.3353 34.4102 61.3353Z" stroke="#413D51" stroke-width="1.28" stroke-miterlimit="10" stroke-linecap="round" stroke-linejoin="round"/>
<path d="M34.3951 24.541L28.0039 33.9226L34.4244 42.4686L40.801 33.9226L34.3951 24.541Z" fill="#413D51"/>
<path d="M34.3951 24.541L28.0039 33.9226L34.4244 42.4686L40.801 33.9226L34.3951 24.541Z" stroke="#413D51" stroke-width="1.28" stroke-miterlimit="10" stroke-linecap="round" stroke-linejoin="round"/>
<path d="M48.9073 4.25323C44.5097 2.20101 39.5111 1.04297 34.2486 1.04297C28.9861 1.04297 23.9875 2.20101 19.5898 4.25323V24.7901H48.9073V4.25323Z" fill="#413D51"/>
<path d="M50.7837 6.306L66.7178 5.82227C64.4163 11.5831 64.1085 20.2465 66.1167 29.716C63.5661 35.1104 58.1424 38.9363 51.7659 39.1269C42.7068 39.4054 35.1282 32.2813 34.8643 23.2075C34.5858 14.1484 41.71 6.58452 50.7837 6.306Z" fill="#413D51"/>
<path d="M50.7837 6.306L66.7178 5.82227C64.4163 11.5831 64.1085 20.2465 66.1167 29.716C63.5661 35.1104 58.1424 38.9363 51.7659 39.1269C42.7068 39.4054 35.1282 32.2813 34.8643 23.2075C34.5858 14.1484 41.71 6.58452 50.7837 6.306Z" stroke="#413D51" stroke-width="1.28" stroke-miterlimit="10" stroke-linecap="round" stroke-linejoin="round"/>
<path d="M51.3553 39.1129C60.4226 39.1129 67.7731 31.7624 67.7731 22.6951C67.7731 13.6278 60.4226 6.27734 51.3553 6.27734C42.288 6.27734 34.9375 13.6278 34.9375 22.6951C34.9375 31.7624 42.288 39.1129 51.3553 39.1129Z" fill="#F7E8AD"/>
<path d="M51.3553 39.1129C60.4226 39.1129 67.7731 31.7624 67.7731 22.6951C67.7731 13.6278 60.4226 6.27734 51.3553 6.27734C42.288 6.27734 34.9375 13.6278 34.9375 22.6951C34.9375 31.7624 42.288 39.1129 51.3553 39.1129Z" fill="#F7E8AD"/>
<path d="M62.9654 11.0854C59.8138 7.93378 55.68 6.33598 51.5463 6.27734C54.6539 6.87835 57.6296 8.37354 60.0337 10.7922C66.4395 17.1981 66.4395 27.5911 60.0337 34.0117C56.7794 37.2659 52.4991 38.8637 48.248 38.8197C53.4226 39.8165 58.9636 38.3067 62.9654 34.3048C69.3713 27.8843 69.3713 17.4913 62.9654 11.0854Z" fill="#F7D6A1"/>
<path opacity="0.7" d="M56.2105 31.463C61.0191 26.6544 60.9912 18.8302 56.1483 13.9873C51.3053 9.14432 43.4812 9.11647 38.6726 13.9251C33.864 18.7337 33.8918 26.5578 38.7348 31.4008C43.5777 36.2437 51.4019 36.2716 56.2105 31.463Z" fill="white"/>
<path d="M65.134 14.9112C64.6796 14.3249 63.8 12.7124 63.2577 12.1701C56.8078 5.80817 46.4148 5.8668 40.0529 12.3313C38.7922 13.6066 37.7808 15.0432 37.0332 16.5823C46.0776 13.4014 55.9869 14.1636 65.134 14.9112Z" fill="#EFCA92"/>
<path d="M51.3553 39.1129C60.4226 39.1129 67.7731 31.7624 67.7731 22.6951C67.7731 13.6278 60.4226 6.27734 51.3553 6.27734C42.288 6.27734 34.9375 13.6278 34.9375 22.6951C34.9375 31.7624 42.288 39.1129 51.3553 39.1129Z" stroke="#413D51" stroke-width="1.28" stroke-miterlimit="10" stroke-linecap="round" stroke-linejoin="round"/>
<path d="M51.3553 39.1129C60.4226 39.1129 67.7731 31.7624 67.7731 22.6951C67.7731 13.6278 60.4226 6.27734 51.3553 6.27734C42.288 6.27734 34.9375 13.6278 34.9375 22.6951C34.9375 31.7624 42.288 39.1129 51.3553 39.1129Z" stroke="#413D51" stroke-width="1.28" stroke-miterlimit="10" stroke-linecap="round" stroke-linejoin="round"/>
<path d="M64.4453 12.7861C63.9908 12.1997 63.5071 11.628 62.9647 11.0856C56.5589 4.67978 46.1658 4.67978 39.7453 11.0856C38.47 12.361 37.4585 13.7829 36.6963 15.3074C45.7847 12.1997 55.2982 11.9652 64.4453 12.7861Z" fill="#413D51"/>
<path d="M43.3656 30.0838C46.7659 30.0838 49.5223 27.3274 49.5223 23.9272C49.5223 20.5269 46.7659 17.7705 43.3656 17.7705C39.9654 17.7705 37.209 20.5269 37.209 23.9272C37.209 27.3274 39.9654 30.0838 43.3656 30.0838Z" fill="#413D51"/>
<path d="M39.8774 26.0205C41.0108 26.0205 41.9296 25.1016 41.9296 23.9682C41.9296 22.8348 41.0108 21.916 39.8774 21.916C38.744 21.916 37.8252 22.8348 37.8252 23.9682C37.8252 25.1016 38.744 26.0205 39.8774 26.0205Z" fill="white"/>
<path d="M17.8452 6.30503L1.89648 5.82129C4.1979 11.5822 4.50574 20.2455 2.49749 29.715C5.04811 35.1094 10.4718 38.9354 16.8484 39.1259C25.9075 39.4044 33.486 32.2803 33.7499 23.2065C34.0284 14.1474 26.9043 6.58354 17.8452 6.30503Z" fill="#413D51"/>
<path d="M17.8452 6.30503L1.89648 5.82129C4.1979 11.5822 4.50574 20.2455 2.49749 29.715C5.04811 35.1094 10.4718 38.9354 16.8484 39.1259C25.9075 39.4044 33.486 32.2803 33.7499 23.2065C34.0284 14.1474 26.9043 6.58354 17.8452 6.30503Z" stroke="#413D51" stroke-width="1.28" stroke-miterlimit="10" stroke-linecap="round" stroke-linejoin="round"/>
<path d="M17.2586 39.1109C26.3259 39.1109 33.6764 31.7605 33.6764 22.6932C33.6764 13.6259 26.3259 6.27539 17.2586 6.27539C8.19131 6.27539 0.84082 13.6259 0.84082 22.6932C0.84082 31.7605 8.19131 39.1109 17.2586 39.1109Z" fill="#F7E8AD"/>
<path d="M17.2586 39.1109C26.3259 39.1109 33.6764 31.7605 33.6764 22.6932C33.6764 13.6259 26.3259 6.27539 17.2586 6.27539C8.19131 6.27539 0.84082 13.6259 0.84082 22.6932C0.84082 31.7605 8.19131 39.1109 17.2586 39.1109Z" fill="#F7E8AD"/>
<path d="M5.64913 11.0835C8.80075 7.93182 12.9345 6.33403 17.0683 6.27539C13.9606 6.8764 10.9849 8.37159 8.58087 10.7903C2.17501 17.1961 2.17501 27.5892 8.58087 34.0097C11.8351 37.2639 16.1155 38.8617 20.3665 38.8178C15.192 39.8146 9.65096 38.3047 5.64913 34.3029C-0.756739 27.8824 -0.756739 17.4893 5.64913 11.0835Z" fill="#F7D6A1"/>
<path opacity="0.7" d="M29.8807 31.4043C34.7237 26.5614 34.7515 18.7372 29.9429 13.9286C25.1343 9.12002 17.3101 9.14786 12.4672 13.9908C7.62423 18.8338 7.59639 26.6579 12.405 31.4665C17.2136 36.2751 25.0377 36.2473 29.8807 31.4043Z" fill="white"/>
<path opacity="0.89" d="M3.49414 14.9093C3.94856 14.3229 4.82809 12.7105 5.37046 12.1681C11.8203 5.80621 22.2133 5.86485 28.5752 12.3293C29.8359 13.6047 30.8473 15.0412 31.5949 16.5804C22.5358 13.3994 12.6265 14.1617 3.49414 14.9093Z" fill="#EFCA92"/>
<path d="M17.2586 39.1109C26.3259 39.1109 33.6764 31.7605 33.6764 22.6932C33.6764 13.6259 26.3259 6.27539 17.2586 6.27539C8.19131 6.27539 0.84082 13.6259 0.84082 22.6932C0.84082 31.7605 8.19131 39.1109 17.2586 39.1109Z" stroke="#413D51" stroke-width="1.28" stroke-miterlimit="10" stroke-linecap="round" stroke-linejoin="round"/>
<path d="M17.2586 39.1109C26.3259 39.1109 33.6764 31.7605 33.6764 22.6932C33.6764 13.6259 26.3259 6.27539 17.2586 6.27539C8.19131 6.27539 0.84082 13.6259 0.84082 22.6932C0.84082 31.7605 8.19131 39.1109 17.2586 39.1109Z" stroke="#413D51" stroke-width="1.28" stroke-miterlimit="10" stroke-linecap="round" stroke-linejoin="round"/>
<path d="M4.18262 12.7841C4.63704 12.1978 5.12078 11.6261 5.66315 11.0837C12.069 4.67783 22.4621 4.67783 28.8826 11.0837C30.1579 12.359 31.1693 13.7809 31.9316 15.3054C22.8432 12.1978 13.315 11.9632 4.18262 12.7841Z" fill="#413D51"/>
<path d="M25.2621 30.0819C28.6624 30.0819 31.4188 27.3255 31.4188 23.9252C31.4188 20.525 28.6624 17.7686 25.2621 17.7686C21.8619 17.7686 19.1055 20.525 19.1055 23.9252C19.1055 27.3255 21.8619 30.0819 25.2621 30.0819Z" fill="#413D51"/>
<path d="M28.7514 26.0214C29.8849 26.0214 30.8037 25.1026 30.8037 23.9692C30.8037 22.8358 29.8849 21.917 28.7514 21.917C27.618 21.917 26.6992 22.8358 26.6992 23.9692C26.6992 25.1026 27.618 26.0214 28.7514 26.0214Z" fill="white"/>
<path d="M26.5085 64.9993C25.2185 64.9993 24.1631 63.9439 24.1631 62.6539V60.0153C24.1631 58.7254 25.2185 57.6699 26.5085 57.6699C27.7985 57.6699 28.8539 58.7254 28.8539 60.0153V62.6539C28.8539 63.9439 27.8131 64.9993 26.5085 64.9993Z" fill="#413D51"/>
<path d="M21.8181 64.9993C20.5281 64.9993 19.4727 63.9439 19.4727 62.6539V60.0153C19.4727 58.7254 20.5281 57.6699 21.8181 57.6699C23.108 57.6699 24.1634 58.7254 24.1634 60.0153V62.6539C24.1634 63.9439 23.1227 64.9993 21.8181 64.9993Z" fill="#413D51"/>
<path d="M31.1696 64.9993C29.8796 64.9993 28.8242 63.9439 28.8242 62.6539V60.0153C28.8242 58.7254 29.8796 57.6699 31.1696 57.6699C32.4596 57.6699 33.515 58.7254 33.515 60.0153V62.6539C33.515 63.9439 32.4596 64.9993 31.1696 64.9993Z" fill="#413D51"/>
<path d="M37.3561 64.9993C36.0662 64.9993 35.0107 63.9439 35.0107 62.6539V60.0153C35.0107 58.7254 36.0662 57.6699 37.3561 57.6699C38.6461 57.6699 39.7015 58.7254 39.7015 60.0153V62.6539C39.7015 63.9439 38.6461 64.9993 37.3561 64.9993Z" fill="#413D51"/>
<path d="M42.0182 64.9993C40.7283 64.9993 39.6729 63.9439 39.6729 62.6539V60.0153C39.6729 58.7254 40.7283 57.6699 42.0182 57.6699C43.3082 57.6699 44.3636 58.7254 44.3636 60.0153V62.6539C44.3636 63.9439 43.3082 64.9993 42.0182 64.9993Z" fill="#413D51"/>
<path d="M46.7087 64.9993C45.4187 64.9993 44.3633 63.9439 44.3633 62.6539V60.0153C44.3633 58.7254 45.4187 57.6699 46.7087 57.6699C47.9986 57.6699 49.0541 58.7254 49.0541 60.0153V62.6539C49.0541 63.9439 47.9986 64.9993 46.7087 64.9993Z" fill="#413D51"/>
<path d="M32.9582 45.8408C32.9582 47.0722 31.9614 48.0689 30.7301 48.0689C29.4987 48.0689 28.502 47.0722 28.502 45.8408" stroke="#413D51" stroke-width="0.64" stroke-miterlimit="10" stroke-linecap="round" stroke-linejoin="round"/>
<path d="M39.7746 45.8408C39.7746 47.0722 38.7778 48.0689 37.5465 48.0689C36.3152 48.0689 35.3184 47.0722 35.3184 45.8408" stroke="#413D51" stroke-width="0.64" stroke-miterlimit="10" stroke-linecap="round" stroke-linejoin="round"/>
<path opacity="0.31" d="M8.19979 40.1541C7.8773 40.8431 7.07107 41.1509 6.36745 40.8284C5.66383 40.5059 5.37065 39.6997 5.69314 38.9961" stroke="#72C8D6" stroke-width="0.64" stroke-miterlimit="10" stroke-linecap="round" stroke-linejoin="round"/>
<path opacity="0.31" d="M12.5675 42.4246C12.245 43.1136 11.4388 43.4214 10.7352 43.0989C10.0462 42.7765 9.7384 41.9702 10.0609 41.2666" stroke="#72C8D6" stroke-width="0.64" stroke-miterlimit="10" stroke-linecap="round" stroke-linejoin="round"/>
<path opacity="0.31" d="M10.0324 44.1698C9.70988 44.8587 8.90365 45.1666 8.20003 44.8441C7.51107 44.5216 7.20324 43.7153 7.52573 43.0117" stroke="#72C8D6" stroke-width="0.64" stroke-miterlimit="10" stroke-linecap="round" stroke-linejoin="round"/>
<path opacity="0.31" d="M13.8732 47.0858C13.5507 47.7747 12.7445 48.0826 12.0409 47.7601C11.3519 47.4376 11.0441 46.6314 11.3666 45.9277" stroke="#72C8D6" stroke-width="0.64" stroke-miterlimit="10" stroke-linecap="round" stroke-linejoin="round"/>
<path opacity="0.31" d="M16.8048 44.449C16.4823 45.138 15.6761 45.4458 14.9725 45.1234C14.2835 44.8009 13.9757 43.9946 14.2982 43.291" stroke="#72C8D6" stroke-width="0.64" stroke-miterlimit="10" stroke-linecap="round" stroke-linejoin="round"/>
<path opacity="0.31" d="M61.0742 40.4461C61.3967 41.1351 62.2029 41.4429 62.9066 41.1204C63.6102 40.7979 63.9033 39.9917 63.5809 39.2881" stroke="#72C8D6" stroke-width="0.64" stroke-miterlimit="10" stroke-linecap="round" stroke-linejoin="round"/>
<path opacity="0.31" d="M56.7207 42.7186C57.0432 43.4075 57.8494 43.7154 58.553 43.3929C59.242 43.0704 59.5498 42.2642 59.2273 41.5605" stroke="#72C8D6" stroke-width="0.64" stroke-miterlimit="10" stroke-linecap="round" stroke-linejoin="round"/>
<path opacity="0.31" d="M59.2412 44.4627C59.5637 45.1517 60.3699 45.4595 61.0736 45.137C61.7625 44.8145 62.0703 44.0083 61.7478 43.3047" stroke="#72C8D6" stroke-width="0.64" stroke-miterlimit="10" stroke-linecap="round" stroke-linejoin="round"/>
<path opacity="0.31" d="M55.415 47.3797C55.7375 48.0687 56.5438 48.3765 57.2474 48.054C57.9363 47.7315 58.2442 46.9253 57.9217 46.2217" stroke="#72C8D6" stroke-width="0.64" stroke-miterlimit="10" stroke-linecap="round" stroke-linejoin="round"/>
<path opacity="0.31" d="M52.4844 44.742C52.8069 45.431 53.6131 45.7388 54.3167 45.4163C55.0057 45.0938 55.3135 44.2876 54.991 43.584" stroke="#72C8D6" stroke-width="0.64" stroke-miterlimit="10" stroke-linecap="round" stroke-linejoin="round"/>
<path d="M29.5578 51.1904C29.5578 52.4218 28.561 53.4186 27.3297 53.4186C26.0984 53.4186 25.1016 52.4218 25.1016 51.1904" stroke="#413D51" stroke-width="0.64" stroke-miterlimit="10" stroke-linecap="round" stroke-linejoin="round"/>
<path d="M36.3742 51.1904C36.3742 52.4218 35.3774 53.4186 34.1461 53.4186C32.9148 53.4186 31.918 52.4218 31.918 51.1904" stroke="#413D51" stroke-width="0.64" stroke-miterlimit="10" stroke-linecap="round" stroke-linejoin="round"/>
<path d="M43.1897 51.1904C43.1897 52.4218 42.1929 53.4186 40.9615 53.4186C39.7302 53.4186 38.7334 52.4218 38.7334 51.1904" stroke="#413D51" stroke-width="0.64" stroke-miterlimit="10" stroke-linecap="round" stroke-linejoin="round"/>
</svg>
