<svg width="189" height="271" viewBox="0 0 189 271" fill="none" xmlns="http://www.w3.org/2000/svg">
<path d="M92.1306 185.094C87.3785 185.701 83.587 192.374 82.8792 197.884C82.677 199.502 82.5759 201.069 82.5759 202.687C82.5759 207.944 83.6881 212.949 85.7102 218.055C87.7324 223.06 90.7656 228.166 94.4055 231.098C98.0959 228.166 101.079 223.06 103.101 218.055C105.123 212.949 106.235 207.944 106.235 202.687C106.235 201.069 106.134 199.502 105.932 197.884C105.224 192.323 101.432 185.701 96.6804 185.094C95.2143 184.943 93.6472 184.943 92.1306 185.094Z" stroke="#601B23" stroke-width="6" stroke-miterlimit="10" stroke-linecap="round" stroke-linejoin="round"/>
<path d="M92.1306 185.094C87.3785 185.701 83.587 192.374 82.8792 197.884C82.677 199.502 82.5759 201.069 82.5759 202.687C82.5759 207.944 83.6881 212.949 85.7102 218.055C87.7324 223.06 90.7656 228.166 94.4055 231.098C98.0959 228.166 101.079 223.06 103.101 218.055C105.123 212.949 106.235 207.944 106.235 202.687C106.235 201.069 106.134 199.502 105.932 197.884C105.224 192.323 101.432 185.701 96.6804 185.094C95.2143 184.943 93.6472 184.943 92.1306 185.094Z" fill="#E36535"/>
<path d="M115.638 216.791C115.638 226.194 113.666 235.193 110.026 244.343C109.925 244.646 109.774 244.95 109.622 245.303C105.982 253.999 100.775 262.694 94.4559 267.8C87.9345 262.542 82.6264 253.493 78.9359 244.545C78.8854 244.495 78.8854 244.444 78.8348 244.343C75.195 235.193 73.2234 226.194 73.2234 216.791C73.2234 213.91 73.4256 211.079 73.7795 208.147C74.9928 198.339 81.6658 186.51 90.0072 185.246C90.1083 185.246 90.2094 185.195 90.3105 185.195C92.9393 184.892 95.6186 184.892 98.2474 185.145C98.3485 185.145 98.5002 185.145 98.6013 185.195C107.094 186.257 113.919 198.238 115.132 208.147C115.436 211.079 115.638 213.91 115.638 216.791Z" fill="#F4A045"/>
<path d="M115.638 216.791C115.638 226.194 113.666 235.193 110.026 244.343C109.925 244.646 109.774 244.95 109.622 245.303C105.982 253.999 100.775 262.694 94.4559 267.8C87.9345 262.542 82.6264 253.493 78.9359 244.545C78.8854 244.495 78.8854 244.444 78.8348 244.343C75.195 235.193 73.2234 226.194 73.2234 216.791C73.2234 213.91 73.4256 211.079 73.7795 208.147C74.9928 198.339 81.6658 186.51 90.0072 185.246C90.1083 185.246 90.2094 185.195 90.3105 185.195C92.9393 184.892 95.6186 184.892 98.2474 185.145C98.3485 185.145 98.5002 185.145 98.6013 185.195C107.094 186.257 113.919 198.238 115.132 208.147C115.436 211.079 115.638 213.91 115.638 216.791Z" stroke="#601B23" stroke-width="6" stroke-miterlimit="10" stroke-linecap="round" stroke-linejoin="round"/>
<path d="M33.4378 107.899L16.9573 114.319V83.0263L67.5615 43.5439V102.742L55.3275 109.163C48.8061 105.725 40.8691 105.017 33.4378 107.899Z" fill="#C11A4D"/>
<path d="M11.5986 122.509C6.44212 115.027 3.45947 106.18 3.45947 96.7268C3.45947 84.7456 8.16095 73.7755 15.9968 65.333C23.8326 73.7755 28.5846 84.7456 28.6352 96.7268C28.6352 106.231 25.6525 115.027 20.5466 122.509H11.5986Z" fill="#CF264D"/>
<path opacity="0.72" d="M16.9573 114.319L33.3367 107.949C33.5389 103.602 33.2355 99.1531 32.4267 94.7043C31.2134 88.0313 28.9385 81.7626 25.8042 76.1006L16.9573 83.0264V114.319Z" fill="#A5143A"/>
<path opacity="0.23" d="M19.0805 91.7721L67.612 53.958V43.5439L16.9573 82.9758V114.319L19.0805 113.51V91.7721Z" fill="#F4A15D"/>
<path opacity="0.72" d="M47.4411 106.483C50.2215 106.938 52.8503 107.848 55.3274 109.163L67.5614 102.742V43.5439L46.2278 60.1761C45.1662 66.5964 44.6606 73.32 44.6606 80.2459C44.7112 89.3961 45.6717 98.243 47.4411 106.483Z" fill="#A5143A"/>
<path d="M33.4378 107.899L16.9573 114.319V83.0263L67.5615 43.5439V102.742L55.3275 109.163C48.8061 105.725 40.8691 105.017 33.4378 107.899Z" stroke="#601B23" stroke-width="6" stroke-miterlimit="10" stroke-linecap="round" stroke-linejoin="round"/>
<path d="M11.5986 122.509C6.44212 115.027 3.45947 106.18 3.45947 96.7268C3.45947 84.7456 8.16095 73.7755 15.9968 65.333C23.8326 73.7755 28.5846 84.7456 28.6352 96.7268C28.6352 106.231 25.6525 115.027 20.5466 122.509H11.5986Z" fill="#CF264D"/>
<path opacity="0.23" d="M15.2385 65.333C15.8451 65.9902 16.4518 66.698 17.0079 67.4057C11.7503 75.4943 8.71709 84.9984 8.66653 95.1091C8.66653 105.119 10.1831 114.471 15.3396 122.56H10.6887C5.58276 115.078 2.6001 106.231 2.6001 96.7774C2.65065 84.7456 7.40269 73.7755 15.2385 65.333Z" fill="#F4A15D"/>
<path opacity="0.32" d="M15.2385 65.333C15.4407 65.5352 15.6429 65.788 15.8452 66.0408C9.93038 74.7865 6.54329 85.0489 6.49273 96.0696C6.49273 105.624 9.07097 114.623 13.5702 122.56H10.6887C5.58276 115.078 2.6001 106.231 2.6001 96.7774C2.65065 84.7456 7.40269 73.7755 15.2385 65.333Z" fill="#F4A15D"/>
<path opacity="0.37" d="M28.6353 96.7268C28.6353 84.7456 23.8833 73.826 15.9969 65.333C15.3903 65.9902 14.7836 66.698 14.2275 67.4057C19.4851 75.4943 22.5183 84.9984 22.5689 95.1091C22.5689 105.119 19.6368 114.471 14.4803 122.56H20.5467C25.6527 115.027 28.6353 106.18 28.6353 96.7268Z" fill="#A5143A"/>
<path opacity="0.72" d="M28.6352 96.7268C28.6352 84.7456 23.8832 73.826 15.9968 65.333C15.7946 65.5352 15.5924 65.788 15.3901 66.0408C21.3049 74.7865 24.692 85.0489 24.7426 96.0696C24.7426 105.624 22.1643 114.623 17.6651 122.56H20.5466C25.6525 115.027 28.6352 106.18 28.6352 96.7268Z" fill="#A5143A"/>
<path opacity="0.37" d="M15.9969 65.333C15.3903 65.9902 14.7836 66.698 14.2275 67.4057C19.4851 75.4943 22.5183 84.9984 22.5689 95.1091C22.5689 105.119 19.6368 114.471 14.4803 122.56H20.5467C25.6527 115.078 28.6353 106.231 28.6353 96.7774C28.5848 84.7456 23.8327 73.7755 15.9969 65.333Z" fill="#A5143A"/>
<path opacity="0.72" d="M15.9968 65.333C15.7946 65.5352 15.5924 65.788 15.3901 66.0408C21.3049 74.7865 24.692 85.0489 24.7426 96.0696C24.7426 105.624 22.1643 114.623 17.6651 122.56H20.5466C25.6525 115.078 28.6352 106.231 28.6352 96.7774C28.5846 84.7456 23.8326 73.7755 15.9968 65.333Z" fill="#A5143A"/>
<path d="M21.76 74.4324C19.8895 71.1465 17.6651 68.1132 15.0869 65.2822C12.5087 68.0627 10.2843 71.1465 8.41382 74.4324H21.76Z" fill="#601B23"/>
<path d="M11.5986 122.509C6.44212 115.027 3.45947 106.18 3.45947 96.7268C3.45947 84.7456 8.16095 73.7755 15.9968 65.333C23.8326 73.7755 28.5846 84.7456 28.6352 96.7268C28.6352 106.231 25.6525 115.027 20.5466 122.509H11.5986Z" stroke="#601B23" stroke-width="6" stroke-miterlimit="10" stroke-linecap="round" stroke-linejoin="round"/>
<path d="M77.2677 161.536C77.2677 161.536 71.1507 162.85 62.3544 171.647C59.1695 174.832 54.1647 181.303 50.4743 186.206C48.9577 188.228 45.7223 187.217 45.6717 184.69L44.4584 130.85C44.2056 129.333 44.6101 127.766 45.5706 126.604L58.8157 110.123L77.2677 161.536Z" fill="#CF264D"/>
<path opacity="0.32" d="M45.5706 185.751C48.4522 185.347 50.626 182.87 50.6765 179.938L51.2326 129.89C50.9798 128.373 51.3843 126.806 52.3448 125.643L60.6356 115.28L58.7651 110.123L45.5706 126.553C44.6101 127.766 44.2056 129.283 44.4584 130.799L45.5706 185.751Z" fill="#F4A15D"/>
<path opacity="0.72" d="M77.2677 161.536L58.8156 110.123L51.4854 119.273C55.4285 134.439 61.6466 149.858 70.0385 165.227C74.4872 162.143 77.2677 161.536 77.2677 161.536Z" fill="#A5143A"/>
<path d="M77.2677 161.536C77.2677 161.536 71.1507 162.85 62.3544 171.647C59.1695 174.832 54.1647 181.303 50.4743 186.206C48.9577 188.228 45.7223 187.217 45.6717 184.69L44.4584 130.85C44.2056 129.333 44.6101 127.766 45.5706 126.604L58.8157 110.123L77.2677 161.536Z" stroke="#601B23" stroke-width="6" stroke-miterlimit="10" stroke-linecap="round" stroke-linejoin="round"/>
<path d="M6.79614 115.836H23.4283" stroke="#601B23" stroke-width="4" stroke-miterlimit="10" stroke-linecap="round" stroke-linejoin="round"/>
<path d="M11.5986 122.509C6.44212 115.027 3.45947 106.18 3.45947 96.7268C3.45947 84.7456 8.16095 73.7755 15.9968 65.333C23.8326 73.7755 28.5846 84.7456 28.6352 96.7268C28.6352 106.231 25.6525 115.027 20.5466 122.509H11.5986Z" fill="#CF264D"/>
<path d="M11.5986 122.509C6.44212 115.027 3.45947 106.18 3.45947 96.7268C3.45947 84.7456 8.16095 73.7755 15.9968 65.333C23.8326 73.7755 28.5846 84.7456 28.6352 96.7268C28.6352 106.231 25.6525 115.027 20.5466 122.509H11.5986Z" fill="#CF264D"/>
<path opacity="0.23" d="M15.2385 65.333C15.8451 65.9902 16.4518 66.698 17.0079 67.4057C11.7503 75.4943 8.71709 84.9984 8.66653 95.1091C8.66653 105.119 10.1831 114.471 15.3396 122.56H10.6887C5.58276 115.078 2.6001 106.231 2.6001 96.7774C2.65065 84.7456 7.40269 73.7755 15.2385 65.333Z" fill="#F4A15D"/>
<path opacity="0.32" d="M15.2385 65.333C15.4407 65.5352 15.6429 65.788 15.8452 66.0408C9.93038 74.7865 6.54329 85.0489 6.49273 96.0696C6.49273 105.624 9.07097 114.623 13.5702 122.56H10.6887C5.58276 115.078 2.6001 106.231 2.6001 96.7774C2.65065 84.7456 7.40269 73.7755 15.2385 65.333Z" fill="#F4A15D"/>
<path opacity="0.37" d="M28.6353 96.7268C28.6353 84.7456 23.8833 73.826 15.9969 65.333C15.3903 65.9902 14.7836 66.698 14.2275 67.4057C19.4851 75.4943 22.5183 84.9984 22.5689 95.1091C22.5689 105.119 19.6368 114.471 14.4803 122.56H20.5467C25.6527 115.027 28.6353 106.18 28.6353 96.7268Z" fill="#A5143A"/>
<path opacity="0.72" d="M28.6352 96.7268C28.6352 84.7456 23.8832 73.826 15.9968 65.333C15.7946 65.5352 15.5924 65.788 15.3901 66.0408C21.3049 74.7865 24.692 85.0489 24.7426 96.0696C24.7426 105.624 22.1643 114.623 17.6651 122.56H20.5466C25.6525 115.027 28.6352 106.18 28.6352 96.7268Z" fill="#A5143A"/>
<path opacity="0.37" d="M15.9969 65.333C15.3903 65.9902 14.7836 66.698 14.2275 67.4057C19.4851 75.4943 22.5183 84.9984 22.5689 95.1091C22.5689 105.119 19.6368 114.471 14.4803 122.56H20.5467C25.6527 115.078 28.6353 106.231 28.6353 96.7774C28.5848 84.7456 23.8327 73.7755 15.9969 65.333Z" fill="#A5143A"/>
<path opacity="0.72" d="M15.9968 65.333C15.7946 65.5352 15.5924 65.788 15.3901 66.0408C21.3049 74.7865 24.692 85.0489 24.7426 96.0696C24.7426 105.624 22.1643 114.623 17.6651 122.56H20.5466C25.6525 115.078 28.6352 106.231 28.6352 96.7774C28.5846 84.7456 23.8326 73.7755 15.9968 65.333Z" fill="#A5143A"/>
<path d="M22.6699 74.4324C20.7994 71.1465 18.5751 68.1132 15.9968 65.2822C13.4186 68.0627 11.1942 71.1465 9.32373 74.4324H22.6699Z" fill="#601B23"/>
<path d="M11.5986 122.509C6.44212 115.027 3.45947 106.18 3.45947 96.7268C3.45947 84.7456 8.16095 73.7755 15.9968 65.333C23.8326 73.7755 28.5846 84.7456 28.6352 96.7268C28.6352 106.231 25.6525 115.027 20.5466 122.509H11.5986Z" stroke="#601B23" stroke-width="6" stroke-miterlimit="10" stroke-linecap="round" stroke-linejoin="round"/>
<path d="M6.79614 115.836H23.4283" stroke="#601B23" stroke-width="4" stroke-miterlimit="10" stroke-linecap="round" stroke-linejoin="round"/>
<path d="M152.492 107.899L168.972 114.319V83.0263L118.368 43.5439V102.742L130.602 109.163C137.123 105.725 145.06 105.017 152.492 107.899Z" fill="#C11A4D"/>
<path opacity="0.72" d="M168.972 114.319L152.593 107.949C152.391 103.602 152.694 99.1531 153.503 94.7043C154.716 88.0313 156.991 81.7626 160.125 76.1006L168.972 83.0264V114.319Z" fill="#A5143A"/>
<path opacity="0.23" d="M166.899 91.7721L118.368 53.958V43.5439L168.972 82.9758V114.319L166.899 113.51V91.7721Z" fill="#F4A15D"/>
<path opacity="0.72" d="M138.488 106.483C135.708 106.938 133.079 107.848 130.602 109.163L118.368 102.742V43.5439L139.702 60.1761C140.763 66.5964 141.269 73.32 141.269 80.2459C141.269 89.3961 140.308 98.243 138.488 106.483Z" fill="#A5143A"/>
<path d="M152.492 107.899L168.972 114.319V83.0263L118.368 43.5439V102.742L130.602 109.163C137.123 105.725 145.06 105.017 152.492 107.899Z" stroke="#601B23" stroke-width="6" stroke-miterlimit="10" stroke-linecap="round" stroke-linejoin="round"/>
<path d="M108.712 161.536C108.712 161.536 114.829 162.85 123.625 171.647C126.81 174.832 131.815 181.303 135.506 186.206C137.022 188.228 140.258 187.217 140.308 184.69L141.521 130.85C141.774 129.333 141.37 127.766 140.409 126.604L127.164 110.123L108.712 161.536Z" fill="#CF264D"/>
<path opacity="0.72" d="M140.359 185.751C137.477 185.347 135.303 182.87 135.253 179.938L134.697 129.89C134.949 128.373 134.545 126.806 133.584 125.643L125.294 115.28L127.164 110.123L140.409 126.604C141.37 127.817 141.774 129.333 141.521 130.85L140.359 185.751Z" fill="#A5143A"/>
<path opacity="0.72" d="M108.712 161.536L127.164 110.123L134.495 119.273C130.551 134.439 124.333 149.858 115.941 165.227C111.493 162.143 108.712 161.536 108.712 161.536Z" fill="#A5143A"/>
<path d="M108.712 161.536C108.712 161.536 114.829 162.85 123.625 171.647C126.81 174.832 131.815 181.303 135.506 186.206C137.022 188.228 140.258 187.217 140.308 184.69L141.521 130.85C141.774 129.333 141.37 127.766 140.409 126.604L127.164 110.123L108.712 161.536Z" stroke="#601B23" stroke-width="6" stroke-miterlimit="10" stroke-linecap="round" stroke-linejoin="round"/>
<path d="M108.459 190.452C109.016 184.436 108.207 178.774 98.0959 163.861C96.4276 161.485 92.4339 161.485 90.7656 163.861C80.6549 178.825 79.846 184.487 80.4021 190.452C80.5032 191.211 81.8682 192.07 82.7276 191.767C88.5413 188.784 100.32 188.784 106.134 191.767C106.993 192.07 108.358 191.261 108.459 190.452Z" fill="#4E8280"/>
<g opacity="0.32">
<path d="M85.508 190.453C84.952 184.437 85.7608 178.775 95.8715 163.862C96.1749 163.407 96.5793 163.053 96.9837 162.8C95.0627 161.536 92.1306 161.89 90.7656 163.862C80.6549 178.826 79.846 184.488 80.4021 190.453C80.5032 191.211 81.8682 192.071 82.7276 191.767C83.587 191.363 84.5475 190.958 85.5586 190.655C85.5586 190.605 85.508 190.554 85.508 190.453Z" fill="#F4A15D"/>
<path d="M96.9836 189.645C100.472 189.897 103.758 190.605 106.134 191.768C106.892 192.071 108.105 191.364 108.409 190.656C105.072 189.695 100.927 189.341 96.9836 189.645Z" fill="#F4A15D"/>
</g>
<path d="M92.5351 163.863C92.3834 163.661 92.2317 163.509 92.0801 163.357C93.9506 161.487 97.4388 161.689 98.9554 163.863C109.066 178.827 109.875 184.489 109.319 190.454C109.218 191.213 107.853 192.072 106.993 191.769C105.831 191.162 104.415 190.707 102.899 190.353C103.455 184.388 102.595 178.726 92.5351 163.863Z" fill="#37605D"/>
<path d="M108.459 190.452C109.016 184.436 108.207 178.774 98.0959 163.861C96.4276 161.485 92.4339 161.485 90.7656 163.861C80.6549 178.825 79.846 184.487 80.4021 190.452C80.5032 191.211 81.8682 192.07 82.7276 191.767C88.5413 188.784 100.32 188.784 106.134 191.767C106.993 192.07 108.358 191.261 108.459 190.452Z" stroke="#601B23" stroke-width="6" stroke-miterlimit="10" stroke-linecap="round" stroke-linejoin="round"/>
<path d="M105.831 172.304C129.641 133.327 138.286 95.0582 132.927 63.1588C128.276 35.4554 113.313 15.4867 94.4055 3C75.4985 15.4867 60.5346 35.4554 55.8836 63.1588C50.525 95.0582 59.2202 133.327 82.9804 172.304H105.831Z" fill="#CF264D"/>
<path opacity="0.23" d="M73.9819 63.7151C77.0151 38.6405 84.9014 18.7224 95.5177 3.80909C95.1638 3.55632 94.7594 3.30355 94.4055 3.05078C75.4985 15.5375 60.5346 35.5062 55.8836 63.2096C50.525 95.109 59.2202 133.378 82.9804 172.355H87.783C74.5885 133.378 70.1398 95.9178 73.9819 63.7151Z" fill="#F4A15D"/>
<path opacity="0.37" d="M132.927 63.1592C128.327 35.658 113.565 15.7905 94.8098 3.30371C98.298 8.91516 102.747 17.0037 106.488 27.2661C113.312 45.9204 114.071 61.2887 114.475 70.9445C116.295 114.37 99.663 162.396 96.1748 172.355H105.831C129.641 133.328 138.286 95.0585 132.927 63.1592Z" fill="#A5143A"/>
<path opacity="0.72" d="M132.927 63.1588C128.276 35.4554 113.313 15.4867 94.4055 3C93.9 3.30332 93.445 3.65721 92.9395 3.96053C100.118 9.57199 105.578 15.5879 109.723 21.351C146.931 73.1179 111.24 150.617 106.336 160.879C106.134 153.903 105.224 145.258 102.646 135.602C100.977 129.435 98.9553 124.025 96.9332 119.425C96.1749 136.563 95.4166 153.7 94.6583 170.838H100.927C100.775 171.344 100.624 171.799 100.421 172.304H105.73C129.641 133.327 138.286 95.0582 132.927 63.1588Z" fill="#A5143A"/>
<path opacity="0.32" d="M62.2534 71.9551C62.9611 63.8665 65.5899 37.5786 81.8177 15.9922C84.3959 12.6051 88.238 8.00471 87.9346 7.75195C87.4796 7.34752 78.5822 15.3855 72.263 23.9291C64.3261 34.5959 58.5124 47.6893 55.9342 63.1587C50.5755 95.0581 59.2707 133.327 83.0309 172.304H85.1036C78.5822 159.312 74.2852 147.583 71.353 138.332C69.432 132.114 66.0449 121.093 63.9217 106.332C62.5567 96.423 61.0401 85.8068 62.2534 71.9551Z" fill="#F4A15D"/>
<path opacity="0.72" d="M97.1354 82.3693C104.73 82.3693 110.886 76.213 110.886 68.6188C110.886 61.0245 104.73 54.8682 97.1354 54.8682C89.5411 54.8682 83.3848 61.0245 83.3848 68.6188C83.3848 76.213 89.5411 82.3693 97.1354 82.3693Z" fill="#A5143A" stroke="#A5143A" stroke-width="6" stroke-miterlimit="10" stroke-linecap="round" stroke-linejoin="round"/>
<path d="M105.831 172.304C129.641 133.327 138.286 95.0582 132.927 63.1588C128.276 35.4554 113.313 15.4867 94.4055 3C75.4985 15.4867 60.5346 35.4554 55.8836 63.1588C50.525 95.0582 59.2202 133.327 82.9804 172.304H105.831Z" stroke="#601B23" stroke-width="6" stroke-miterlimit="10" stroke-linecap="round" stroke-linejoin="round"/>
<path d="M94.4054 80.2463C102 80.2463 108.156 74.0899 108.156 66.4957C108.156 58.9015 102 52.7451 94.4054 52.7451C86.8111 52.7451 80.6548 58.9015 80.6548 66.4957C80.6548 74.0899 86.8111 80.2463 94.4054 80.2463Z" fill="#ABCFD8"/>
<path opacity="0.93" d="M92.5349 74.0279C97.1138 74.0279 100.826 70.316 100.826 65.7371C100.826 61.1582 97.1138 57.4463 92.5349 57.4463C87.9561 57.4463 84.2441 61.1582 84.2441 65.7371C84.2441 70.316 87.9561 74.0279 92.5349 74.0279Z" fill="#E2F0F2"/>
<path d="M94.4054 80.2463C102 80.2463 108.156 74.0899 108.156 66.4957C108.156 58.9015 102 52.7451 94.4054 52.7451C86.8111 52.7451 80.6548 58.9015 80.6548 66.4957C80.6548 74.0899 86.8111 80.2463 94.4054 80.2463Z" stroke="#601B23" stroke-width="6" stroke-miterlimit="10" stroke-linecap="round" stroke-linejoin="round"/>
<path d="M74.9929 20.441C87.5808 16.0934 101.382 16.0934 113.97 20.4916C108.257 13.5657 101.635 7.75204 94.4561 3C87.2775 7.75204 80.6549 13.5657 74.9929 20.441Z" fill="#601B23"/>
<path d="M74.9929 20.441C87.5808 16.0934 101.382 16.0934 113.97 20.4916C108.257 13.5657 101.635 7.75204 94.4561 3C87.2775 7.75204 80.6549 13.5657 74.9929 20.441Z" stroke="#601B23" stroke-width="6" stroke-miterlimit="10" stroke-linecap="round" stroke-linejoin="round"/>
<path d="M94.4056 195.964C94.9617 195.964 95.4167 195.357 95.4672 194.548L99.2587 132.67C99.6632 126.301 97.641 120.386 94.6584 118.97C94.4561 118.869 94.2539 118.869 94.1023 118.97C91.1196 120.335 89.0974 126.25 89.5019 132.67L93.2934 194.548C93.3945 195.357 93.9 195.964 94.4056 195.964Z" fill="#BC1D4E"/>
<path opacity="0.74" d="M94.4056 195.964C94.9617 195.964 95.4167 195.357 95.4672 194.548L99.2587 132.67C99.6632 126.301 97.641 120.386 94.6584 118.97C94.4561 118.869 94.2539 118.869 94.1023 118.97C91.1196 120.335 89.0974 126.25 89.5019 132.67L93.2934 194.548C93.3945 195.357 93.9 195.964 94.4056 195.964Z" fill="#A5143A"/>
<g opacity="0.53">
<path d="M94.1528 118.97C91.1701 120.335 89.148 126.249 89.5524 132.67L93.3439 194.547C93.3945 195.205 93.6978 195.761 94.1022 195.912V118.97H94.1528Z" fill="#F4A15D"/>
<path d="M94.1528 118.969H94.7089C94.5067 118.868 94.3045 118.868 94.1528 118.969Z" fill="#F4A15D"/>
</g>
<path d="M94.4056 195.964C94.9617 195.964 95.4167 195.357 95.4672 194.548L99.2587 132.67C99.6632 126.301 97.641 120.386 94.6584 118.97C94.4561 118.869 94.2539 118.869 94.1023 118.97C91.1196 120.335 89.0974 126.25 89.5019 132.67L93.2934 194.548C93.3945 195.357 93.9 195.964 94.4056 195.964Z" stroke="#601B23" stroke-width="6" stroke-miterlimit="10" stroke-linecap="round" stroke-linejoin="round"/>
<path d="M168.618 122.509C163.462 115.027 160.479 106.18 160.479 96.7268C160.479 84.7456 165.18 73.7755 173.016 65.333C180.852 73.7755 185.604 84.7456 185.655 96.7268C185.655 106.231 182.672 115.027 177.566 122.509H168.618Z" fill="#CF264D"/>
<path d="M168.618 122.509C163.462 115.027 160.479 106.18 160.479 96.7268C160.479 84.7456 165.18 73.7755 173.016 65.333C180.852 73.7755 185.604 84.7456 185.655 96.7268C185.655 106.231 182.672 115.027 177.566 122.509H168.618Z" fill="#CF264D"/>
<path opacity="0.23" d="M172.309 65.333C172.915 65.9902 173.522 66.698 174.078 67.4057C168.82 75.4943 165.787 84.9984 165.737 95.1091C165.737 105.119 167.253 114.471 172.41 122.56H167.759C162.653 115.078 159.67 106.231 159.67 96.7774C159.67 84.7456 164.422 73.7755 172.309 65.333Z" fill="#F4A15D"/>
<path opacity="0.32" d="M172.309 65.333C172.511 65.5352 172.713 65.788 172.915 66.0408C167 74.7865 163.613 85.0489 163.563 96.0696C163.563 105.624 166.141 114.623 170.64 122.56H167.759C162.653 115.078 159.67 106.231 159.67 96.7774C159.67 84.7456 164.422 73.7755 172.309 65.333Z" fill="#F4A15D"/>
<path opacity="0.37" d="M185.655 96.7268C185.655 84.7456 180.903 73.826 173.016 65.333C172.41 65.9902 171.803 66.698 171.247 67.4057C176.505 75.4943 179.538 84.9984 179.588 95.1091C179.588 105.119 176.656 114.471 171.5 122.56H177.566C182.672 115.027 185.655 106.18 185.655 96.7268Z" fill="#A5143A"/>
<path opacity="0.72" d="M185.655 96.7268C185.655 84.7456 180.903 73.826 173.016 65.333C172.814 65.5352 172.612 65.788 172.41 66.0408C178.324 74.7865 181.712 85.0489 181.762 96.0696C181.762 105.624 179.184 114.623 174.685 122.56H177.566C182.672 115.027 185.655 106.18 185.655 96.7268Z" fill="#A5143A"/>
<path opacity="0.37" d="M173.016 65.333C172.41 65.9902 171.803 66.698 171.247 67.4057C176.505 75.4943 179.538 84.9984 179.588 95.1091C179.588 105.119 176.656 114.471 171.5 122.56H177.566C182.672 115.078 185.655 106.231 185.655 96.7774C185.655 84.7456 180.903 73.7755 173.016 65.333Z" fill="#A5143A"/>
<path opacity="0.72" d="M173.016 65.333C172.814 65.5352 172.612 65.788 172.41 66.0408C178.324 74.7865 181.712 85.0489 181.762 96.0696C181.762 105.624 179.184 114.623 174.685 122.56H177.566C182.672 115.078 185.655 106.231 185.655 96.7774C185.655 84.7456 180.903 73.7755 173.016 65.333Z" fill="#A5143A"/>
<path d="M179.74 74.4324C177.869 71.1465 175.645 68.1132 173.067 65.2822C170.489 68.0627 168.264 71.1465 166.394 74.4324H179.74Z" fill="#601B23"/>
<path d="M168.618 122.509C163.462 115.027 160.479 106.18 160.479 96.7268C160.479 84.7456 165.18 73.7755 173.016 65.333C180.852 73.7755 185.604 84.7456 185.655 96.7268C185.655 106.231 182.672 115.027 177.566 122.509H168.618Z" stroke="#601B23" stroke-width="6" stroke-miterlimit="10" stroke-linecap="round" stroke-linejoin="round"/>
<path d="M164.776 115.836H181.408" stroke="#601B23" stroke-width="4" stroke-miterlimit="10" stroke-linecap="round" stroke-linejoin="round"/>
<path opacity="0.41" d="M78.835 18.7228C78.835 18.7228 82.2726 13.3135 93.9505 4.21387C88.5413 11.5441 87.4796 16.1445 87.1258 16.4984C83.6881 17.1556 78.835 18.7228 78.835 18.7228Z" fill="white"/>
</svg>
